<svg xmlns="http://www.w3.org/2000/svg" width="980" height="520" viewBox="0 0 980 520">
<rect width="100%" height="100%" fill="white"/>
<text x="490.0" y="30" text-anchor="middle" font-size="22" font-family="Arial" font-weight="700">2023-2025 福建用电结构：重点变量</text>
<text x="200" y="68.7088" text-anchor="end" font-size="12" font-family="Arial">电子</text>
<rect x="210" y="55.0" width="53.75436052499777" height="20.16" fill="#2563eb" opacity="0.82"/>
<text x="269.75436052499776" y="68.7088" font-size="11" font-family="Arial">358.7亿</text>
<text x="200" y="97.2688" text-anchor="end" font-size="12" font-family="Arial">纺织业</text>
<rect x="210" y="83.56" width="57.238432292881654" height="20.16" fill="#2563eb" opacity="0.82"/>
<text x="273.23843229288167" y="97.2688" font-size="11" font-family="Arial">382.0亿</text>
<text x="200" y="125.8288" text-anchor="end" font-size="12" font-family="Arial">化学制品制造业</text>
<rect x="210" y="112.12" width="63.032069407585944" height="20.16" fill="#2563eb" opacity="0.82"/>
<text x="279.03206940758594" y="125.8288" font-size="11" font-family="Arial">420.7亿</text>
<text x="200" y="154.3888" text-anchor="end" font-size="12" font-family="Arial">非金属矿物制品业</text>
<rect x="210" y="140.68" width="63.08494861363075" height="20.16" fill="#2563eb" opacity="0.82"/>
<text x="279.08494861363073" y="154.3888" font-size="11" font-family="Arial">421.0亿</text>
<text x="200" y="182.9488" text-anchor="end" font-size="12" font-family="Arial">公共服务及管理组织</text>
<rect x="210" y="169.24" width="72.86546461531033" height="20.16" fill="#2563eb" opacity="0.82"/>
<text x="288.8654646153103" y="182.9488" font-size="11" font-family="Arial">486.3亿</text>
<text x="200" y="211.5088" text-anchor="end" font-size="12" font-family="Arial">批发和零售业</text>
<rect x="210" y="197.8" width="74.83416889310043" height="20.16" fill="#2563eb" opacity="0.82"/>
<text x="290.8341688931004" y="211.5088" font-size="11" font-family="Arial">499.4亿</text>
<text x="200" y="240.0688" text-anchor="end" font-size="12" font-family="Arial">黑色金属冶炼</text>
<rect x="210" y="226.36" width="78.16974765298488" height="20.16" fill="#2563eb" opacity="0.82"/>
<text x="294.1697476529849" y="240.0688" font-size="11" font-family="Arial">521.7亿</text>
<text x="200" y="268.6288" text-anchor="end" font-size="12" font-family="Arial">石化</text>
<rect x="210" y="254.92000000000002" width="82.44721436963755" height="20.16" fill="#2563eb" opacity="0.82"/>
<text x="298.44721436963755" y="268.6288" font-size="11" font-family="Arial">550.2亿</text>
<text x="200" y="297.1888" text-anchor="end" font-size="12" font-family="Arial">非普工业</text>
<rect x="210" y="283.48" width="94.57862403800812" height="20.16" fill="#2563eb" opacity="0.82"/>
<text x="310.5786240380081" y="297.1888" font-size="11" font-family="Arial">631.2亿</text>
<text x="200" y="325.7488" text-anchor="end" font-size="12" font-family="Arial">机械</text>
<rect x="210" y="312.04" width="99.5425685521533" height="20.16" fill="#2563eb" opacity="0.82"/>
<text x="315.5425685521533" y="325.7488" font-size="11" font-family="Arial">664.3亿</text>
<text x="200" y="354.3088" text-anchor="end" font-size="12" font-family="Arial">商业用电</text>
<rect x="210" y="340.6" width="141.14003304140806" height="20.16" fill="#2563eb" opacity="0.82"/>
<text x="357.14003304140806" y="354.3088" font-size="11" font-family="Arial">941.9亿</text>
<text x="200" y="382.8688" text-anchor="end" font-size="12" font-family="Arial">居民生活</text>
<rect x="210" y="369.16" width="304.91212482566317" height="20.16" fill="#2563eb" opacity="0.82"/>
<text x="520.9121248256631" y="382.8688" font-size="11" font-family="Arial">2034.9亿</text>
<text x="200" y="411.4288" text-anchor="end" font-size="12" font-family="Arial">大工业电量</text>
<rect x="210" y="397.72" width="673.6966959074371" height="20.16" fill="#2563eb" opacity="0.82"/>
<text x="889.6966959074371" y="411.4288" font-size="11" font-family="Arial">4496.1亿</text>
<text x="200" y="439.9888" text-anchor="end" font-size="12" font-family="Arial">制造业</text>
<rect x="210" y="426.28000000000003" width="676.5321788139823" height="20.16" fill="#2563eb" opacity="0.82"/>
<text x="892.5321788139823" y="439.9888" font-size="11" font-family="Arial">4515.0亿</text>
<text x="200" y="468.5488" text-anchor="end" font-size="12" font-family="Arial">工业</text>
<rect x="210" y="454.84000000000003" width="730.0" height="20.16" fill="#2563eb" opacity="0.82"/>
<text x="946.0" y="468.5488" font-size="11" font-family="Arial">4871.8亿</text>
</svg>